<?xml version="1.0" standalone="no"?><!DOCTYPE svg PUBLIC "-//W3C//DTD SVG 1.1//EN" "http://www.w3.org/Graphics/SVG/1.1/DTD/svg11.dtd"><svg t="1717047372876" class="icon" viewBox="0 0 1024 1024" version="1.1" xmlns="http://www.w3.org/2000/svg" p-id="8730" xmlns:xlink="http://www.w3.org/1999/xlink" width="32" height="32"><path d="M832.853333 646.442667H896v226.304h-63.146667V790.186667l-93.781333 54.144v-53.162667H310.485333v53.162667h-0.085333l-104.533333-60.373334v88.746667h-63.146667v-226.261333h63.146667v88.874666l104.618666-60.416v53.12h428.586667V674.986667l93.781333 54.101333V646.4z m27.690667-195.754667H159.573333c-17.493333 0-31.573333-14.08-31.573333-31.573333V159.573333c0-17.493333 14.08-31.573333 31.573333-31.573333h700.970667c17.493333 0 31.573333 14.08 31.573333 31.573333v259.669334c0 17.365333-14.08 31.445333-31.573333 31.445333z m-318.933333-63.146667h53.717333v-126.293333h63.146667v126.293333h53.674666v-80.64h63.146667v80.64h53.674667V191.146667H191.146667v196.394666h53.674666v-80.64h63.146667v80.64h53.674667v-126.293333h63.146666v126.293333h53.674667v-80.64h63.146667v80.64z" p-id="8731"></path></svg>