<?xml version="1.0" standalone="no"?><!DOCTYPE svg PUBLIC "-//W3C//DTD SVG 1.1//EN" "http://www.w3.org/Graphics/SVG/1.1/DTD/svg11.dtd"><svg t="1717047516464" class="icon" viewBox="0 0 1024 1024" version="1.1" xmlns="http://www.w3.org/2000/svg" p-id="9730" xmlns:xlink="http://www.w3.org/1999/xlink" width="32" height="32"><path d="M403.36 569.32l152.05 152.05c4.39 4.39 11.5 4.39 15.89 0l26.88-26.88c4.39-4.39 4.39-11.5 0-15.89L446.13 526.56c-4.39-4.39-4.39-11.5 0-15.89l60.9-60.9c4.39-4.39 11.5-4.39 15.89 0l120.23 120.24c4.39 4.39 11.5 4.39 15.89 0l26.88-26.88c4.39-4.39 4.39-11.5 0-15.89L565.7 406.99c-4.39-4.39-4.39-11.5 0-15.89l57.34-57.34c4.39-4.39 11.5-4.39 15.89 0l93.14 93.14c4.39 4.39 11.5 4.39 15.89 0l26.88-26.88c4.39-4.39 4.39-11.5 0-15.89L681.69 291c-4.39-4.39-4.39-11.5 0-15.89l64.23-64.23c4.39-4.39 11.5-4.39 15.89 0l49.89 49.89c4.39 4.39 11.5 4.39 15.89 0l37.57-37.57c4.39-4.39 4.39-11.5 0-15.89L761.81 103.96c-4.39-4.39-11.5-4.39-15.89 0L102.87 747c-4.39 4.39-4.39 11.5 0 15.89l143.58 143.55c4.39 4.39 11.5 4.39 15.89 0l37.57-37.57c4.39-4.39 4.39-11.5 0-15.89l-90.11-90.09c-4.39-4.39-4.39-11.5 0-15.89l59.61-59.61c4.39-4.39 11.5-4.39 15.89 0l77.38 77.39c4.39 4.39 11.5 4.39 15.89 0l26.88-26.88c4.39-4.39 4.39-11.5 0-15.89l-77.38-77.39c-4.39-4.39-4.39-11.5 0-15.89l59.4-59.4c4.38-4.4 11.5-4.4 15.89-0.01z m59.65 354.46h458.53c2.99 0 5.41-2.42 5.41-5.41V466.03c0-4.8-5.79-7.22-9.2-3.85L459.22 914.53c-3.44 3.39-1.04 9.25 3.79 9.25z" p-id="9731"></path></svg>