<?xml version="1.0" standalone="no"?><!DOCTYPE svg PUBLIC "-//W3C//DTD SVG 1.1//EN" "http://www.w3.org/Graphics/SVG/1.1/DTD/svg11.dtd"><svg t="1704273286738" class="icon" viewBox="0 0 1025 1024" version="1.1" xmlns="http://www.w3.org/2000/svg" p-id="5390" width="128.125" height="128" xmlns:xlink="http://www.w3.org/1999/xlink"><path d="M0 958.464l49.664 36.864s168.448-140.8 200.192-173.056c14.848-14.848 79.36-86.528 86.528-94.208 7.168-7.168 39.424-51.712 47.104-59.392 5.12-7.168 17.408-27.136 22.016-22.016 2.56 2.56 5.12 7.168 5.12 12.288 2.56 5.12 5.12 9.728 9.728 12.288 5.12 5.12 5.12 7.168 2.56 14.848-7.168 22.016 0 24.576 9.728 39.424 0 0 2.56 7.168 2.56 14.848-2.56 7.168 0 12.288 0 24.576 7.168 39.424 19.968 56.832 27.136 61.952 5.12 5.12 14.848 12.288 19.968 24.576 7.168 12.288 9.728 24.576 9.728 34.816 2.56 17.408 9.728 34.816 9.728 36.864 0 2.56 2.56 7.168 2.56 7.168s0-2.56 5.12-27.136c2.56-7.168 2.56-17.408 5.12-27.136 7.168-22.016 24.576-47.104 34.816-49.664 14.848-5.12 24.576-2.56 32.256 2.56 17.408 12.288 47.104 41.984 61.952 54.272 12.288 14.848 27.136 22.016 27.136 22.016s-14.848-19.968-7.168-36.864c2.56-5.12 9.728-12.288 17.408-17.408 14.848-9.728 29.696-12.288 39.424-9.728 17.408 5.12 24.576 5.12 27.136 5.12s2.56-12.288 22.016-19.968c19.968-7.168 27.136-5.12 44.544-2.56 17.408 2.56 36.864 5.12 49.664 7.168 12.288 2.56 27.136 5.12 27.136 5.12s-22.016-9.728-41.984-24.576c-7.168-5.12-24.576-14.848-29.696-24.576-14.848-22.016-12.288-36.864-12.288-41.984 2.56-14.848 2.56-14.848 5.12-22.016 0-2.56 2.56-5.12 2.56-7.168 0 0-2.56-2.56-7.168-5.12-12.288-5.12-34.816-14.848-34.816-17.408 0 0 41.984-7.168 83.968-5.12 7.168 0 14.848 0 19.968 2.56 29.696 2.56 47.104 9.728 54.272 12.288 9.728 5.12 17.408 7.168 19.968 9.728 2.56 0-39.424-41.984-41.984-56.832-2.56-19.968-7.168-32.256 44.544-79.36l14.848-14.848c39.424-34.816 51.712-47.104 54.272-49.664l2.56-2.56s-41.984-2.56-51.712-7.168c-9.728-5.12-14.848-12.288-14.848-19.968s2.56-12.288 2.56-12.288-9.728 5.12-24.576 2.56c-7.168-2.56-24.576-2.56-36.864-9.728-22.016-17.408-34.816-22.016-9.728-56.832 5.12-5.12 7.168-9.728 7.168-9.728s-56.832 32.256-86.528 41.984-83.968 14.848-96.256 17.408c-12.288 0-17.408 2.56-12.288-9.728 2.56-2.56 5.12-9.728 12.288-14.848 14.848-17.408 27.136-39.424 64.512-66.56 39.424-29.696 49.664-39.424 59.392-47.104 9.728-7.168 22.016-19.968 22.016-19.968s-66.56 17.408-74.24-32.256c-2.56-14.848 14.848-32.256 19.968-41.984 7.168-12.288 14.848-22.016 14.848-22.016s-24.576 22.016-29.696 9.728-9.728-41.984-9.728-49.664v-19.968s-24.576 17.408-24.576 9.728c-2.56-9.728 9.728-44.544 9.728-44.544s-27.136 22.016-41.984 22.016c-27.136-2.56-39.424-22.016-39.424-22.016s-27.136 44.544-51.712 51.712c-24.576 5.12-54.272-7.168-64.512-24.576-9.728-14.848-17.408-34.816-17.408-34.816s-7.168 71.68-24.576 121.344c-17.408 51.712-32.256 96.256-36.864 94.208-7.168-2.56-9.728-36.864-5.12-74.24 5.12-44.544 29.696-106.496 29.696-106.496s-9.728 7.168-14.848 9.728-29.696 12.288-39.424 2.56c-19.968-22.016-29.696-56.832-29.696-56.832s-9.728 12.288-19.968 7.168-27.136-17.408-27.136-17.408-9.728 17.408-14.848-2.56c0-7.168-5.12-17.408-7.168-24.576s-2.56-14.848-5.12-17.408c-2.56-5.12-5.12-7.168-5.12-7.168s-2.56 22.016-9.728 41.984c-7.168 22.016-17.408 41.984-22.016 47.104-14.848 12.288-24.576 5.12-24.576 5.12s0 41.984-22.016 49.664c-32.256 14.848-49.664 5.12-49.664 5.12s9.728 7.168 14.848 22.016c5.12 9.728 5.12 24.576 5.12 36.864 2.56 24.576 5.12 39.424 2.56 54.272-2.56 14.848 2.56 14.848-2.56 12.288s-54.272-12.288-71.68-14.848c-17.408-5.12-27.136-2.56-61.952-9.728-12.288-2.56-32.256-17.408-36.864-17.408-12.288-5.12-19.968 0-19.968 0s29.696 14.848 32.256 22.016c5.12 7.168 5.12 12.288 7.168 17.408 7.168 14.848 9.728 27.136 9.728 36.864s-5.12 14.848 0 24.576c7.168 19.968 14.848 17.408 17.408 29.696 5.12 12.288 0 22.016-5.12 24.576-12.288 9.728-7.168 7.168-22.016 12.288s-24.576 2.56-24.576 2.56 7.168 5.12 17.408 9.728c5.12 2.56 14.848 5.12 22.016 7.168 12.288 7.168 24.576 14.848 36.864 19.968 9.728 5.12 12.288 9.728 32.256 27.136 12.288 12.288 9.728 9.728 5.12 17.408-9.728 14.848-14.848 14.848-29.696 29.696s-27.136 24.576-39.424 34.816-22.016 7.168-22.016 7.168 5.12 5.12 29.696 2.56c5.12 0 12.288-2.56 17.408-2.56 17.408 2.56 32.256 14.848 49.664 14.848 22.016 0 22.016 9.728 32.256 17.408 5.12 5.12 29.696 0 36.864-2.56 19.968-7.168 24.576-5.12 47.104-5.12 14.848 0 98.816-9.728 76.8 22.016-17.408 27.136-34.816 51.712-111.104 125.952-22.016 22.016-125.952 109.056-151.04 128.512-24.576 17.408-94.208 61.952-103.936 64.512l-13.824 10.24z" fill="#f0cf15" p-id="5391"></path></svg>